<svg width="42" height="46" viewBox="0 0 42 46" fill="none" xmlns="http://www.w3.org/2000/svg">
<path d="M2.99888 12.3212C1.49904 6.03615 6.26424 0 12.7258 0H23.1642C27.7929 0 31.8166 3.17654 32.891 7.67881L38.6183 31.6788C40.1181 37.9638 35.353 44 28.8914 44H18.453C13.8243 44 9.80056 40.8235 8.72615 36.3212L2.99888 12.3212Z" fill="#FF7D56"/>
<path d="M13.1146 32.656C13.5413 32.912 14.0426 33.1467 14.6186 33.36C15.2159 33.5733 15.8346 33.7653 16.4746 33.936C17.1359 34.0853 17.7866 34.2027 18.4266 34.288C19.0879 34.3733 19.6959 34.416 20.2506 34.416C22.0426 34.416 23.5893 34.1387 24.8906 33.584C26.1919 33.0293 27.1839 32.272 27.8666 31.312C28.5706 30.3307 28.9226 29.232 28.9226 28.016C28.9226 27.12 28.7199 26.32 28.3146 25.616C27.9306 24.8907 27.4186 24.2293 26.7786 23.632C26.1386 23.0347 25.4239 22.4907 24.6346 22C23.8666 21.5093 23.0986 21.04 22.3306 20.592C21.7546 20.2507 21.2106 19.9627 20.6986 19.728C20.2079 19.472 19.8026 19.216 19.4826 18.96C19.1839 18.704 19.0346 18.4267 19.0346 18.128C19.0346 17.7227 19.2266 17.3707 19.6106 17.072C19.9946 16.752 20.5173 16.592 21.1786 16.592C21.6693 16.592 22.1173 16.624 22.5226 16.688C22.9279 16.7307 23.3759 16.816 23.8666 16.944C24.3786 17.072 25.0186 17.2747 25.7866 17.552L27.5146 13.616C26.6613 13.04 25.6479 12.6027 24.4746 12.304C23.3226 11.984 22.2026 11.824 21.1146 11.824C19.4719 11.824 18.0426 12.1013 16.8266 12.656C15.6106 13.1893 14.6719 13.9253 14.0106 14.864C13.3706 15.8027 13.0399 16.8693 13.0186 18.064C13.0186 18.9813 13.2213 19.8133 13.6266 20.56C14.0319 21.2853 14.5653 21.936 15.2266 22.512C15.8879 23.088 16.5919 23.6107 17.3386 24.08C18.1066 24.5493 18.8426 24.9973 19.5466 25.424C20.1013 25.744 20.6346 26.0533 21.1466 26.352C21.6586 26.6293 22.0746 26.9067 22.3946 27.184C22.7359 27.44 22.9066 27.696 22.9066 27.952C22.9066 28.208 22.7999 28.4747 22.5866 28.752C22.3733 29.008 22.0533 29.2213 21.6266 29.392C21.2213 29.5627 20.7093 29.648 20.0906 29.648C19.5786 29.648 18.9919 29.584 18.3306 29.456C17.6906 29.3067 17.0719 29.1253 16.4746 28.912C15.8986 28.6987 15.4186 28.4853 15.0346 28.272L13.1146 32.656Z" fill="white"/>
</svg>
